<svg id="visual" viewBox="0 0 1920 1920" width="1920" height="1920" xmlns="http://www.w3.org/2000/svg" xmlns:xlink="http://www.w3.org/1999/xlink" version="1.1"><rect x="0" y="0" width="1920" height="1920" fill="#7ec6fd"></rect><defs><linearGradient id="grad1_0" x1="0%" y1="0%" x2="100%" y2="100%"><stop offset="30%" stop-color="#3cb2fa" stop-opacity="1"></stop><stop offset="70%" stop-color="#3cb2fa" stop-opacity="1"></stop></linearGradient></defs><defs><linearGradient id="grad1_1" x1="0%" y1="0%" x2="100%" y2="100%"><stop offset="30%" stop-color="#3cb2fa" stop-opacity="1"></stop><stop offset="70%" stop-color="#57b9fb" stop-opacity="1"></stop></linearGradient></defs><defs><linearGradient id="grad1_2" x1="0%" y1="0%" x2="100%" y2="100%"><stop offset="30%" stop-color="#6cbffc" stop-opacity="1"></stop><stop offset="70%" stop-color="#57b9fb" stop-opacity="1"></stop></linearGradient></defs><defs><linearGradient id="grad1_3" x1="0%" y1="0%" x2="100%" y2="100%"><stop offset="30%" stop-color="#6cbffc" stop-opacity="1"></stop><stop offset="70%" stop-color="#7ec6fd" stop-opacity="1"></stop></linearGradient></defs><defs><linearGradient id="grad2_0" x1="0%" y1="0%" x2="100%" y2="100%"><stop offset="30%" stop-color="#3cb2fa" stop-opacity="1"></stop><stop offset="70%" stop-color="#3cb2fa" stop-opacity="1"></stop></linearGradient></defs><defs><linearGradient id="grad2_1" x1="0%" y1="0%" x2="100%" y2="100%"><stop offset="30%" stop-color="#57b9fb" stop-opacity="1"></stop><stop offset="70%" stop-color="#3cb2fa" stop-opacity="1"></stop></linearGradient></defs><defs><linearGradient id="grad2_2" x1="0%" y1="0%" x2="100%" y2="100%"><stop offset="30%" stop-color="#57b9fb" stop-opacity="1"></stop><stop offset="70%" stop-color="#6cbffc" stop-opacity="1"></stop></linearGradient></defs><defs><linearGradient id="grad2_3" x1="0%" y1="0%" x2="100%" y2="100%"><stop offset="30%" stop-color="#7ec6fd" stop-opacity="1"></stop><stop offset="70%" stop-color="#6cbffc" stop-opacity="1"></stop></linearGradient></defs><g transform="translate(1920, 0)"><path d="M0 1357.6C-70.2 1217.8 -140.4 1077.9 -200.2 1006.3C-259.9 934.6 -309.3 931.2 -394.9 953.4C-480.5 975.7 -602.4 1023.6 -655 980.3C-707.6 937 -690.9 802.6 -746 746C-801.1 689.4 -927.9 710.6 -1028.5 687.2C-1129.2 663.9 -1203.7 595.9 -1250.9 518.2C-1298.2 440.4 -1318.3 352.9 -1331.6 264.9C-1344.8 176.9 -1351.2 88.4 -1357.6 0L0 0Z" fill="#75c3fd"></path><path d="M0 1018.2C-52.6 913.3 -105.3 808.4 -150.1 754.7C-195 701 -232 698.4 -296.2 715.1C-360.4 731.8 -451.8 767.7 -491.3 735.2C-530.7 702.8 -518.2 602 -559.5 559.5C-600.8 517 -695.9 533 -771.4 515.4C-846.9 497.9 -902.7 446.9 -938.2 388.6C-973.7 330.3 -988.7 264.6 -998.7 198.6C-1008.6 132.7 -1013.4 66.3 -1018.2 0L0 0Z" fill="#62bcfc"></path><path d="M0 678.8C-35.1 608.9 -70.2 539 -100.1 503.1C-130 467.3 -154.7 465.6 -197.5 476.7C-240.3 487.8 -301.2 511.8 -327.5 490.2C-353.8 468.5 -345.5 401.3 -373 373C-400.5 344.7 -463.9 355.3 -514.3 343.6C-564.6 331.9 -601.8 298 -625.5 259.1C-649.1 220.2 -659.2 176.4 -665.8 132.4C-672.4 88.4 -675.6 44.2 -678.8 0L0 0Z" fill="#4bb5fb"></path><path d="M0 339.4C-17.5 304.4 -35.1 269.5 -50 251.6C-65 233.7 -77.3 232.8 -98.7 238.4C-120.1 243.9 -150.6 255.9 -163.8 245.1C-176.9 234.3 -172.7 200.7 -186.5 186.5C-200.3 172.3 -232 177.7 -257.1 171.8C-282.3 166 -300.9 149 -312.7 129.5C-324.6 110.1 -329.6 88.2 -332.9 66.2C-336.2 44.2 -337.8 22.1 -339.4 0L0 0Z" fill="#3cb2fa"></path></g><g transform="translate(0, 1920)"><path d="M0 -1357.6C83.4 -1281.9 166.8 -1206.2 225.1 -1131.8C283.5 -1057.5 316.7 -984.5 418.7 -1010.7C520.6 -1037 691.3 -1162.5 754.3 -1128.8C817.3 -1095.2 772.5 -902.5 820.2 -820.2C867.9 -738 1008 -766.3 1093.4 -730.6C1178.7 -694.9 1209.3 -595.2 1213.1 -502.5C1216.8 -409.7 1193.6 -323.9 1213.2 -241.3C1232.8 -158.7 1295.2 -79.4 1357.6 0L0 0Z" fill="#75c3fd"></path><path d="M0 -1018.2C62.6 -961.4 125.1 -904.6 168.9 -848.9C212.6 -793.1 237.5 -738.4 314 -758C390.5 -777.7 518.5 -871.8 565.7 -846.6C612.9 -821.4 579.4 -676.9 615.2 -615.2C651 -553.5 756 -574.7 820 -547.9C884 -521.2 907 -446.4 909.8 -376.8C912.6 -307.3 895.2 -242.9 909.9 -181C924.6 -119.1 971.4 -59.5 1018.2 0L0 0Z" fill="#62bcfc"></path><path d="M0 -678.8C41.7 -641 83.4 -603.1 112.6 -565.9C141.7 -528.7 158.3 -492.2 209.3 -505.4C260.3 -518.5 345.6 -581.2 377.1 -564.4C408.6 -547.6 386.3 -451.2 410.1 -410.1C434 -369 504 -383.1 546.7 -365.3C589.4 -347.4 604.7 -297.6 606.5 -251.2C608.4 -204.9 596.8 -162 606.6 -120.7C616.4 -79.4 647.6 -39.7 678.8 0L0 0Z" fill="#4bb5fb"></path><path d="M0 -339.4C20.9 -320.5 41.7 -301.5 56.3 -283C70.9 -264.4 79.2 -246.1 104.7 -252.7C130.2 -259.2 172.8 -290.6 188.6 -282.2C204.3 -273.8 193.1 -225.6 205.1 -205.1C217 -184.5 252 -191.6 273.3 -182.6C294.7 -173.7 302.3 -148.8 303.3 -125.6C304.2 -102.4 298.4 -81 303.3 -60.3C308.2 -39.7 323.8 -19.8 339.4 0L0 0Z" fill="#3cb2fa"></path></g></svg>